# xmcd
# 
# Track frame offsets:
#	150
#	16572
#	36290
#	50022
#	68477
#	89685
#	104697
#	126347
#	151152
#	163862
#	185427
#	202252
#
# Disc length: 2973 seconds
#
# Revision: 3
# Processed by: cddbd v1.5.1PL0 Copyright (c) Steve Scherf et al.
# Submitted via: Audio-CD-Archiv 3.00.486
#
DISCID=a60b9b0c
DTITLE=Steve Binetti - Delphinium And Cynosure
DYEAR=1900
DGENRE=blues
TTITLE0=star, sadly flickerin
TTITLE1=totem horse
TTITLE2=delphinium and cynosure
TTITLE3=gently spirited
TTITLE4=castles made of sand
TTITLE5=come on
TTITLE6=thing...
TTITLE7=emerald moonbeams - approximately
TTITLE8=let's go home
TTITLE9=free - or 5th dimension
TTITLE10=may not be too late
TTITLE11=off.. ! space-time, over.
EXTD=
EXTT0=
EXTT1=
EXTT2=
EXTT3=
EXTT4=
EXTT5=
EXTT6=
EXTT7=
EXTT8=
EXTT9=
EXTT10=
EXTT11=
PLAYORDER=
